<?xml version="1.0" standalone="no"?>
<!DOCTYPE svg PUBLIC "-//W3C//DTD SVG 20010904//EN"
 "http://www.w3.org/TR/2001/REC-SVG-20010904/DTD/svg10.dtd">
<svg version="1.0" xmlns="http://www.w3.org/2000/svg"
 width="1080.000000pt" height="1080.000000pt" viewBox="0 0 1080.000000 1080.000000"
 preserveAspectRatio="xMidYMid meet">

<g transform="translate(0.000000,1080.000000) scale(0.100000,-0.100000)"
fill="#000000" stroke="none">
<path d="M865 6086 c-355 -82 -562 -357 -542 -721 9 -159 51 -287 131 -399
205 -287 608 -376 935 -206 149 77 264 213 318 375 25 72 27 94 28 230 0 130
-3 160 -23 225 -74 236 -226 398 -441 473 -75 26 -102 31 -216 33 -86 3 -150
-1 -190 -10z m280 -260 c93 -43 177 -157 210 -283 19 -73 19 -213 0 -286 -34
-129 -116 -242 -209 -286 -34 -16 -65 -21 -121 -21 -41 0 -75 4 -75 9 0 5 25
40 55 78 87 107 100 141 100 253 0 107 -11 136 -85 225 -65 77 -82 118 -82
195 0 37 7 83 16 103 l15 37 63 0 c45 0 77 -7 113 -24z m-256 -61 c-19 -99 4
-171 91 -284 32 -42 63 -93 70 -115 17 -52 9 -142 -18 -196 -22 -44 -126 -182
-143 -188 -16 -6 -116 103 -142 154 -44 88 -61 161 -60 269 1 120 24 203 82
293 33 50 117 130 127 120 1 -2 -2 -26 -7 -53z"/>
<path d="M3317 6079 c-84 -24 -183 -65 -219 -91 -19 -13 -28 -28 -28 -47 0
-33 18 -50 74 -71 28 -11 42 -23 47 -40 8 -30 11 -896 3 -925 -3 -12 -25 -33
-49 -48 -47 -28 -66 -67 -48 -96 6 -9 25 -25 44 -36 31 -18 52 -20 209 -20
146 0 183 3 223 18 77 30 76 94 -2 137 -21 13 -43 32 -47 44 -5 12 -9 281 -9
599 0 502 -2 579 -15 587 -24 15 -109 10 -183 -11z"/>
<path d="M5335 6086 c-266 -61 -450 -233 -517 -484 -24 -91 -28 -274 -9 -367
46 -219 175 -393 354 -479 129 -62 217 -80 375 -73 132 5 206 23 310 76 31 16
52 20 81 15 50 -8 76 7 102 57 38 76 38 190 -2 230 -35 35 -64 25 -139 -51
-60 -59 -79 -72 -136 -90 -149 -46 -316 -11 -426 88 -92 83 -149 214 -169 394
-40 359 119 562 405 518 94 -15 172 -58 270 -151 45 -42 91 -81 104 -88 27
-14 58 -7 90 22 49 45 15 240 -55 318 -38 41 -69 49 -116 28 -19 -9 -40 -6
-108 17 -71 23 -104 28 -219 30 -90 2 -155 -1 -195 -10z"/>
<path d="M7556 6084 c-97 -31 -165 -96 -197 -189 -12 -36 -14 -113 -6 -265 l2
-35 -55 -7 c-61 -7 -80 -25 -80 -72 0 -47 14 -60 77 -71 l58 -10 3 -220 c2
-121 0 -243 -3 -272 -6 -48 -10 -55 -56 -88 -46 -33 -50 -39 -47 -73 3 -32 8
-40 43 -57 35 -18 60 -20 215 -20 184 0 254 11 285 45 34 38 12 69 -83 121
-28 16 -31 22 -37 90 -3 41 -5 164 -3 274 l3 200 68 6 c37 3 72 10 77 15 16
16 15 115 -1 125 -8 5 -41 9 -75 9 l-61 0 -12 53 c-6 29 -32 95 -56 147 -25
52 -45 103 -45 113 0 48 43 82 90 72 22 -5 39 -22 69 -69 53 -85 82 -106 141
-106 58 0 95 30 105 84 15 76 -24 139 -112 183 -50 24 -71 28 -158 30 -69 2
-115 -2 -149 -13z"/>
<path d="M8182 6081 c-150 -52 -219 -186 -195 -381 5 -47 8 -90 6 -96 -2 -6
-26 -14 -53 -16 -64 -6 -80 -21 -80 -72 0 -55 7 -62 64 -69 82 -11 78 1 74
-282 -3 -137 -8 -258 -12 -267 -4 -9 -23 -26 -41 -37 -49 -28 -68 -62 -55 -95
16 -44 67 -59 221 -64 212 -7 339 23 339 82 0 27 -14 41 -78 76 -34 19 -48 33
-54 57 -5 18 -7 141 -6 275 l3 243 68 6 c43 4 72 11 78 20 5 8 9 37 9 65 0 61
-5 64 -90 64 l-58 0 -13 53 c-6 28 -32 92 -56 141 -51 105 -55 145 -17 175 15
12 34 21 44 21 27 0 64 -34 100 -93 38 -64 73 -87 128 -87 52 0 99 37 108 86
15 83 -51 167 -159 199 -71 21 -209 19 -275 -4z"/>
<path d="M6530 5676 c-71 -20 -116 -42 -180 -87 -153 -107 -229 -294 -201
-492 16 -112 56 -193 133 -271 99 -99 200 -138 359 -138 241 -1 438 145 504
376 13 44 16 86 13 170 -3 104 -6 116 -40 189 -61 128 -158 209 -297 251 -66
19 -225 20 -291 2z m231 -199 c54 -29 100 -88 129 -164 28 -75 24 -212 -8
-284 -27 -62 -78 -118 -127 -140 -42 -20 -120 -25 -129 -10 -3 5 10 29 30 53
96 114 98 226 6 341 -17 21 -36 54 -43 74 -12 39 -6 118 12 139 18 21 81 17
130 -9z m-181 -74 c0 -72 11 -98 71 -174 40 -50 55 -112 40 -166 -13 -46 -95
-163 -116 -163 -20 0 -85 77 -109 129 -31 67 -30 245 1 313 22 47 88 128 104
128 5 0 9 -30 9 -67z"/>
<path d="M8906 5674 c-127 -31 -253 -129 -310 -242 -76 -151 -76 -362 2 -506
131 -246 497 -318 745 -147 90 61 129 140 92 181 -24 27 -52 25 -127 -8 -85
-39 -161 -56 -214 -48 -118 16 -214 117 -214 226 l0 40 259 0 c143 0 271 4
285 10 37 14 48 43 48 128 0 182 -116 323 -303 367 -79 18 -185 18 -263 -1z
m199 -163 c35 -20 65 -69 75 -123 15 -80 17 -79 -154 -76 -151 3 -151 3 -154
27 -10 68 61 182 120 194 33 6 78 -2 113 -22z"/>
<path d="M9920 5672 c-154 -40 -274 -152 -332 -308 -31 -84 -31 -283 -1 -365
74 -199 238 -310 463 -311 139 -1 244 33 339 110 76 62 102 130 63 165 -27 24
-46 21 -142 -20 -72 -32 -96 -37 -160 -37 -58 -1 -84 4 -116 21 -79 42 -142
144 -132 214 l3 24 270 5 c149 3 278 9 287 14 37 17 48 123 23 219 -56 216
-309 336 -565 269z m210 -161 c14 -10 35 -32 47 -50 22 -32 40 -122 28 -141
-4 -6 -62 -10 -155 -10 -165 0 -166 0 -154 69 22 128 144 196 234 132z"/>
<path d="M2055 5656 c-87 -24 -189 -68 -217 -93 -23 -21 -23 -65 0 -85 9 -9
34 -21 54 -27 56 -18 62 -48 62 -301 1 -118 -3 -227 -7 -242 -4 -16 -20 -34
-38 -43 -106 -55 -87 -135 37 -155 77 -13 257 -13 325 0 96 18 138 75 87 120
-13 11 -38 34 -57 50 l-33 31 4 187 c6 211 16 257 73 312 28 28 44 34 90 38
143 12 175 -53 175 -359 0 -176 -6 -213 -38 -223 -33 -11 -72 -54 -72 -79 0
-61 81 -87 269 -87 129 0 222 15 250 41 36 34 23 87 -28 114 -61 31 -61 30
-61 228 0 301 -22 420 -95 504 -48 56 -119 85 -226 91 -125 7 -181 -12 -263
-88 -35 -33 -66 -60 -69 -60 -2 0 -7 27 -9 59 -2 33 -10 66 -17 75 -19 23 -98
19 -196 -8z"/>
<path d="M3736 5655 c-55 -14 -76 -35 -76 -76 0 -29 33 -59 77 -73 12 -4 33
-20 46 -35 23 -28 233 -470 288 -607 61 -152 60 -266 -2 -319 -45 -37 -71 -33
-114 19 -60 74 -148 86 -207 29 -80 -77 -44 -216 67 -259 60 -22 162 -15 230
17 72 33 162 129 212 224 22 44 103 235 178 425 187 469 186 467 283 520 54
30 67 48 58 83 -12 49 -55 62 -206 62 -109 0 -141 -3 -167 -17 -60 -33 -56
-91 8 -127 40 -23 41 -25 36 -65 -5 -44 -102 -315 -122 -343 -21 -29 -38 -4
-114 168 -93 209 -94 212 -47 255 20 18 36 42 36 53 0 29 -32 58 -77 70 -54
15 -327 13 -387 -4z"/>
</g>
</svg>
