<?xml version="1.0" standalone="no"?>
<!DOCTYPE svg PUBLIC "-//W3C//DTD SVG 20010904//EN"
 "http://www.w3.org/TR/2001/REC-SVG-20010904/DTD/svg10.dtd">
<svg version="1.0" xmlns="http://www.w3.org/2000/svg"
 width="1080.000000pt" height="1080.000000pt" viewBox="0 0 1080.000000 1080.000000"
 preserveAspectRatio="xMidYMid meet">

<g transform="translate(0.000000,1080.000000) scale(0.100000,-0.100000)"
fill="#000000" stroke="none">
<path d="M3400 7899 c-394 -24 -741 -117 -1070 -285 -457 -235 -769 -550 -989
-999 -125 -253 -204 -529 -237 -828 -19 -169 -14 -537 10 -707 108 -763 476
-1359 1085 -1759 265 -174 581 -300 891 -355 564 -99 1147 -27 1632 201 374
177 706 459 918 782 29 44 57 81 61 81 4 0 29 -35 55 -77 175 -290 465 -572
763 -742 372 -213 847 -331 1328 -331 411 0 762 86 1154 282 l176 88 78 -20
c43 -11 110 -20 150 -20 61 0 77 4 116 29 61 38 103 91 149 186 158 328 125
753 -66 846 -59 28 -136 30 -189 4 -42 -20 -119 -94 -273 -263 -191 -208 -412
-312 -734 -343 -220 -21 -522 15 -730 87 -223 78 -451 238 -601 422 -312 382
-467 911 -467 1593 0 395 45 630 171 884 159 323 437 524 794 575 122 17 359
12 489 -10 364 -63 604 -208 992 -596 214 -214 287 -263 391 -264 114 0 218
66 266 169 20 42 22 62 22 231 -1 211 -13 289 -73 466 -80 235 -222 430 -340
469 -86 28 -164 18 -263 -33 l-82 -41 -81 33 c-367 150 -724 215 -1126 203
-418 -12 -726 -83 -1081 -247 -403 -186 -719 -456 -944 -803 -27 -42 -53 -77
-56 -77 -3 0 -36 46 -72 103 -310 482 -790 832 -1341 977 -302 79 -582 108
-876 89z m432 -943 c189 -57 333 -142 481 -285 335 -323 519 -802 520 -1351 0
-671 -283 -1254 -746 -1532 -163 -98 -316 -138 -524 -138 -114 0 -267 21 -285
38 -17 17 70 139 285 401 108 131 180 244 225 354 133 319 117 721 -40 1006
-48 87 -83 135 -202 281 -179 219 -229 298 -276 440 -39 116 -52 326 -30 470
13 78 51 200 86 275 23 48 30 55 63 61 20 3 41 7 46 10 6 2 78 2 160 0 126 -3
164 -8 237 -30z m-732 -93 c0 -5 -7 -30 -16 -58 -57 -188 -57 -481 1 -676 49
-161 126 -287 336 -546 165 -203 212 -292 249 -473 43 -204 13 -450 -78 -642
-38 -82 -142 -228 -243 -343 -71 -80 -191 -243 -226 -305 -15 -27 -33 -50 -38
-50 -6 0 -47 25 -92 55 -281 188 -507 525 -612 913 -56 206 -74 343 -74 577
-1 172 3 233 21 339 39 227 82 371 162 541 127 272 313 494 533 636 60 39 77
46 77 32z"/>
</g>
</svg>
